<svg width="60" height="60" fill="none" xmlns="http://www.w3.org/2000/svg"><path d="M31.304 48.26v5.218c0 .72.585 1.305 1.305 1.305h13.043c.72 0 1.305-.585 1.305-1.305v-5.217c0-.72-.585-1.305-1.305-1.305H32.61c-.72 0-1.305.585-1.305 1.305zm2.609 1.305h10.435v2.609H33.913v-2.609z" fill="#305DFB"/><path d="M53.478 0H6.522A6.53 6.53 0 000 6.522v46.956A6.53 6.53 0 006.522 60h46.956A6.53 6.53 0 0060 53.478V6.522A6.53 6.53 0 0053.478 0zm3.913 53.478a3.918 3.918 0 01-3.913 3.913H6.522a3.918 3.918 0 01-3.913-3.913V13.044H57.39v40.434zm0-43.043H2.61V6.522a3.918 3.918 0 013.913-3.913h46.956a3.918 3.918 0 013.913 3.913v3.913z" fill="#A5A9C0"/><path d="M6.522 5.217a1.305 1.305 0 100 2.61 1.305 1.305 0 000-2.61z" fill="#A5A9C0"/><path d="M14.348 54.782H27.39c.72 0 1.305-.584 1.305-1.304v-5.217c0-.72-.585-1.305-1.305-1.305H14.348c-.72 0-1.305.585-1.305 1.305v5.217c0 .72.585 1.304 1.305 1.304zm1.304-5.217h10.435v2.609H15.652v-2.609z" fill="#305DFB"/><path d="M16.956 5.217a1.305 1.305 0 10.002 2.61 1.305 1.305 0 00-.002-2.61zm-5.216 0a1.305 1.305 0 100 2.61 1.305 1.305 0 000-2.61z" fill="#A5A9C0"/><path d="M19.863 40.153c.03.031.067.052.099.08.623.611 1.296 1.17 2.021 1.66.084.057.175.102.261.159.694.449 1.422.845 2.192 1.171.09.04.185.066.276.102.78.31 1.589.564 2.429.736.052.01.104.013.154.023.876.167 1.779.264 2.705.264.926 0 1.829-.097 2.705-.264.052-.01.105-.013.154-.023.84-.17 1.649-.425 2.429-.736.091-.036.185-.063.276-.102.77-.323 1.498-.722 2.192-1.171.086-.055.177-.102.26-.16a14.514 14.514 0 002.022-1.658c.031-.032.068-.052.1-.081.005-.005.005-.016.01-.02A14.305 14.305 0 0044.348 30c0-7.912-6.436-14.348-14.348-14.348-7.912 0-14.348 6.436-14.348 14.348 0 3.952 1.607 7.534 4.2 10.132.005.005.005.016.01.021zm17.186-.827c-.274.206-.546.415-.835.592-.235.146-.485.266-.73.397-3.392 1.74-7.576 1.74-10.968 0-.245-.13-.495-.25-.73-.397-.29-.177-.56-.386-.835-.592a11.906 11.906 0 01-.597-.493c1.38-2.974 4.346-4.92 7.646-4.92s6.266 1.946 7.649 4.92c-.196.17-.394.337-.6.493zM26.087 27.391A3.918 3.918 0 0130 23.478a3.918 3.918 0 013.913 3.913A3.918 3.918 0 0130 31.304a3.918 3.918 0 01-3.913-3.913zM30 18.261c6.472 0 11.74 5.267 11.74 11.739 0 2.549-.838 4.891-2.224 6.819a11.137 11.137 0 00-5.188-4.586c1.335-1.197 2.194-2.914 2.194-4.842A6.53 6.53 0 0030 20.87a6.53 6.53 0 00-6.522 6.522c0 1.928.858 3.645 2.194 4.84a11.137 11.137 0 00-5.189 4.585c-1.385-1.925-2.222-4.267-2.222-6.816 0-6.472 5.267-11.74 11.739-11.74z" fill="#305DFB"/></svg>