<svg width="342" height="231" fill="none" xmlns="http://www.w3.org/2000/svg"><circle cx="115.5" cy="115.5" r="115.5" fill="#E2FAE6"/><circle cx="200" cy="69" r="1" fill="#A5A9C0" stroke="#A5A9C0" stroke-width=".4"/><circle cx="210" cy="69" r="1" fill="#A5A9C0" stroke="#A5A9C0" stroke-width=".4"/><circle cx="220" cy="69" r="1" fill="#A5A9C0" stroke="#A5A9C0" stroke-width=".4"/><circle cx="230" cy="69" r="1" fill="#A5A9C0" stroke="#A5A9C0" stroke-width=".4"/><circle cx="240" cy="69" r="1" fill="#A5A9C0" stroke="#A5A9C0" stroke-width=".4"/><circle cx="250" cy="69" r="1" fill="#A5A9C0" stroke="#A5A9C0" stroke-width=".4"/><circle cx="260" cy="69" r="1" fill="#A5A9C0" stroke="#A5A9C0" stroke-width=".4"/><circle cx="270" cy="69" r="1" fill="#A5A9C0" stroke="#A5A9C0" stroke-width=".4"/><circle cx="280" cy="69" r="1" fill="#A5A9C0" stroke="#A5A9C0" stroke-width=".4"/><circle cx="290" cy="69" r="1" fill="#A5A9C0" stroke="#A5A9C0" stroke-width=".4"/><circle cx="300" cy="69" r="1" fill="#A5A9C0" stroke="#A5A9C0" stroke-width=".4"/><circle cx="310" cy="69" r="1" fill="#A5A9C0" stroke="#A5A9C0" stroke-width=".4"/><circle cx="320" cy="69" r="1" fill="#A5A9C0" stroke="#A5A9C0" stroke-width=".4"/><circle cx="330" cy="69" r="1" fill="#A5A9C0" stroke="#A5A9C0" stroke-width=".4"/><circle cx="340" cy="69" r="1" fill="#A5A9C0" stroke="#A5A9C0" stroke-width=".4"/><circle cx="200" cy="79" r="1" fill="#A5A9C0" stroke="#A5A9C0" stroke-width=".4"/><circle cx="210" cy="79" r="1" fill="#A5A9C0" stroke="#A5A9C0" stroke-width=".4"/><circle cx="220" cy="79" r="1" fill="#A5A9C0" stroke="#A5A9C0" stroke-width=".4"/><circle cx="230" cy="79" r="1" fill="#A5A9C0" stroke="#A5A9C0" stroke-width=".4"/><circle cx="240" cy="79" r="1" fill="#A5A9C0" stroke="#A5A9C0" stroke-width=".4"/><circle cx="250" cy="79" r="1" fill="#A5A9C0" stroke="#A5A9C0" stroke-width=".4"/><circle cx="260" cy="79" r="1" fill="#A5A9C0" stroke="#A5A9C0" stroke-width=".4"/><circle cx="270" cy="79" r="1" fill="#A5A9C0" stroke="#A5A9C0" stroke-width=".4"/><circle cx="280" cy="79" r="1" fill="#A5A9C0" stroke="#A5A9C0" stroke-width=".4"/><circle cx="290" cy="79" r="1" fill="#A5A9C0" stroke="#A5A9C0" stroke-width=".4"/><circle cx="300" cy="79" r="1" fill="#A5A9C0" stroke="#A5A9C0" stroke-width=".4"/><circle cx="310" cy="79" r="1" fill="#A5A9C0" stroke="#A5A9C0" stroke-width=".4"/><circle cx="320" cy="79" r="1" fill="#A5A9C0" stroke="#A5A9C0" stroke-width=".4"/><circle cx="330" cy="79" r="1" fill="#A5A9C0" stroke="#A5A9C0" stroke-width=".4"/><circle cx="340" cy="79" r="1" fill="#A5A9C0" stroke="#A5A9C0" stroke-width=".4"/><circle cx="200" cy="89" r="1" fill="#A5A9C0" stroke="#A5A9C0" stroke-width=".4"/><circle cx="210" cy="89" r="1" fill="#A5A9C0" stroke="#A5A9C0" stroke-width=".4"/><circle cx="220" cy="89" r="1" fill="#A5A9C0" stroke="#A5A9C0" stroke-width=".4"/><circle cx="230" cy="89" r="1" fill="#A5A9C0" stroke="#A5A9C0" stroke-width=".4"/><circle cx="240" cy="89" r="1" fill="#A5A9C0" stroke="#A5A9C0" stroke-width=".4"/><circle cx="250" cy="89" r="1" fill="#A5A9C0" stroke="#A5A9C0" stroke-width=".4"/><circle cx="260" cy="89" r="1" fill="#A5A9C0" stroke="#A5A9C0" stroke-width=".4"/><circle cx="270" cy="89" r="1" fill="#A5A9C0" stroke="#A5A9C0" stroke-width=".4"/><circle cx="280" cy="89" r="1" fill="#A5A9C0" stroke="#A5A9C0" stroke-width=".4"/><circle cx="290" cy="89" r="1" fill="#A5A9C0" stroke="#A5A9C0" stroke-width=".4"/><circle cx="300" cy="89" r="1" fill="#A5A9C0" stroke="#A5A9C0" stroke-width=".4"/><circle cx="310" cy="89" r="1" fill="#A5A9C0" stroke="#A5A9C0" stroke-width=".4"/><circle cx="320" cy="89" r="1" fill="#A5A9C0" stroke="#A5A9C0" stroke-width=".4"/><circle cx="330" cy="89" r="1" fill="#A5A9C0" stroke="#A5A9C0" stroke-width=".4"/><circle cx="340" cy="89" r="1" fill="#A5A9C0" stroke="#A5A9C0" stroke-width=".4"/><circle cx="200" cy="99" r="1" fill="#A5A9C0" stroke="#A5A9C0" stroke-width=".4"/><circle cx="210" cy="99" r="1" fill="#A5A9C0" stroke="#A5A9C0" stroke-width=".4"/><circle cx="220" cy="99" r="1" fill="#A5A9C0" stroke="#A5A9C0" stroke-width=".4"/><circle cx="230" cy="99" r="1" fill="#A5A9C0" stroke="#A5A9C0" stroke-width=".4"/><circle cx="240" cy="99" r="1" fill="#A5A9C0" stroke="#A5A9C0" stroke-width=".4"/><circle cx="250" cy="99" r="1" fill="#A5A9C0" stroke="#A5A9C0" stroke-width=".4"/><circle cx="260" cy="99" r="1" fill="#A5A9C0" stroke="#A5A9C0" stroke-width=".4"/><circle cx="270" cy="99" r="1" fill="#A5A9C0" stroke="#A5A9C0" stroke-width=".4"/><circle cx="280" cy="99" r="1" fill="#A5A9C0" stroke="#A5A9C0" stroke-width=".4"/><circle cx="290" cy="99" r="1" fill="#A5A9C0" stroke="#A5A9C0" stroke-width=".4"/><circle cx="300" cy="99" r="1" fill="#A5A9C0" stroke="#A5A9C0" stroke-width=".4"/><circle cx="310" cy="99" r="1" fill="#A5A9C0" stroke="#A5A9C0" stroke-width=".4"/><circle cx="320" cy="99" r="1" fill="#A5A9C0" stroke="#A5A9C0" stroke-width=".4"/><circle cx="330" cy="99" r="1" fill="#A5A9C0" stroke="#A5A9C0" stroke-width=".4"/><circle cx="340" cy="99" r="1" fill="#A5A9C0" stroke="#A5A9C0" stroke-width=".4"/><circle cx="200" cy="109" r="1" fill="#A5A9C0" stroke="#A5A9C0" stroke-width=".4"/><circle cx="210" cy="109" r="1" fill="#A5A9C0" stroke="#A5A9C0" stroke-width=".4"/><circle cx="220" cy="109" r="1" fill="#A5A9C0" stroke="#A5A9C0" stroke-width=".4"/><circle cx="230" cy="109" r="1" fill="#A5A9C0" stroke="#A5A9C0" stroke-width=".4"/><circle cx="240" cy="109" r="1" fill="#A5A9C0" stroke="#A5A9C0" stroke-width=".4"/><circle cx="250" cy="109" r="1" fill="#A5A9C0" stroke="#A5A9C0" stroke-width=".4"/><circle cx="260" cy="109" r="1" fill="#A5A9C0" stroke="#A5A9C0" stroke-width=".4"/><circle cx="270" cy="109" r="1" fill="#A5A9C0" stroke="#A5A9C0" stroke-width=".4"/><circle cx="280" cy="109" r="1" fill="#A5A9C0" stroke="#A5A9C0" stroke-width=".4"/><circle cx="290" cy="109" r="1" fill="#A5A9C0" stroke="#A5A9C0" stroke-width=".4"/><circle cx="300" cy="109" r="1" fill="#A5A9C0" stroke="#A5A9C0" stroke-width=".4"/><circle cx="310" cy="109" r="1" fill="#A5A9C0" stroke="#A5A9C0" stroke-width=".4"/><circle cx="320" cy="109" r="1" fill="#A5A9C0" stroke="#A5A9C0" stroke-width=".4"/><circle cx="330" cy="109" r="1" fill="#A5A9C0" stroke="#A5A9C0" stroke-width=".4"/><circle cx="340" cy="109" r="1" fill="#A5A9C0" stroke="#A5A9C0" stroke-width=".4"/><circle cx="200" cy="119" r="1" fill="#A5A9C0" stroke="#A5A9C0" stroke-width=".4"/><circle cx="210" cy="119" r="1" fill="#A5A9C0" stroke="#A5A9C0" stroke-width=".4"/><circle cx="220" cy="119" r="1" fill="#A5A9C0" stroke="#A5A9C0" stroke-width=".4"/><circle cx="230" cy="119" r="1" fill="#A5A9C0" stroke="#A5A9C0" stroke-width=".4"/><circle cx="240" cy="119" r="1" fill="#A5A9C0" stroke="#A5A9C0" stroke-width=".4"/><circle cx="250" cy="119" r="1" fill="#A5A9C0" stroke="#A5A9C0" stroke-width=".4"/><circle cx="260" cy="119" r="1" fill="#A5A9C0" stroke="#A5A9C0" stroke-width=".4"/><circle cx="270" cy="119" r="1" fill="#A5A9C0" stroke="#A5A9C0" stroke-width=".4"/><circle cx="280" cy="119" r="1" fill="#A5A9C0" stroke="#A5A9C0" stroke-width=".4"/><circle cx="290" cy="119" r="1" fill="#A5A9C0" stroke="#A5A9C0" stroke-width=".4"/><circle cx="300" cy="119" r="1" fill="#A5A9C0" stroke="#A5A9C0" stroke-width=".4"/><circle cx="310" cy="119" r="1" fill="#A5A9C0" stroke="#A5A9C0" stroke-width=".4"/><circle cx="320" cy="119" r="1" fill="#A5A9C0" stroke="#A5A9C0" stroke-width=".4"/><circle cx="330" cy="119" r="1" fill="#A5A9C0" stroke="#A5A9C0" stroke-width=".4"/><circle cx="340" cy="119" r="1" fill="#A5A9C0" stroke="#A5A9C0" stroke-width=".4"/><circle cx="200" cy="129" r="1" fill="#A5A9C0" stroke="#A5A9C0" stroke-width=".4"/><circle cx="210" cy="129" r="1" fill="#A5A9C0" stroke="#A5A9C0" stroke-width=".4"/><circle cx="220" cy="129" r="1" fill="#A5A9C0" stroke="#A5A9C0" stroke-width=".4"/><circle cx="230" cy="129" r="1" fill="#A5A9C0" stroke="#A5A9C0" stroke-width=".4"/><circle cx="240" cy="129" r="1" fill="#A5A9C0" stroke="#A5A9C0" stroke-width=".4"/><circle cx="250" cy="129" r="1" fill="#A5A9C0" stroke="#A5A9C0" stroke-width=".4"/><circle cx="260" cy="129" r="1" fill="#A5A9C0" stroke="#A5A9C0" stroke-width=".4"/><circle cx="270" cy="129" r="1" fill="#A5A9C0" stroke="#A5A9C0" stroke-width=".4"/><circle cx="280" cy="129" r="1" fill="#A5A9C0" stroke="#A5A9C0" stroke-width=".4"/><circle cx="290" cy="129" r="1" fill="#A5A9C0" stroke="#A5A9C0" stroke-width=".4"/><circle cx="300" cy="129" r="1" fill="#A5A9C0" stroke="#A5A9C0" stroke-width=".4"/><circle cx="310" cy="129" r="1" fill="#A5A9C0" stroke="#A5A9C0" stroke-width=".4"/><circle cx="320" cy="129" r="1" fill="#A5A9C0" stroke="#A5A9C0" stroke-width=".4"/><circle cx="330" cy="129" r="1" fill="#A5A9C0" stroke="#A5A9C0" stroke-width=".4"/><circle cx="340" cy="129" r="1" fill="#A5A9C0" stroke="#A5A9C0" stroke-width=".4"/><circle cx="200" cy="139" r="1" fill="#A5A9C0" stroke="#A5A9C0" stroke-width=".4"/><circle cx="210" cy="139" r="1" fill="#A5A9C0" stroke="#A5A9C0" stroke-width=".4"/><circle cx="220" cy="139" r="1" fill="#A5A9C0" stroke="#A5A9C0" stroke-width=".4"/><circle cx="230" cy="139" r="1" fill="#A5A9C0" stroke="#A5A9C0" stroke-width=".4"/><circle cx="240" cy="139" r="1" fill="#A5A9C0" stroke="#A5A9C0" stroke-width=".4"/><circle cx="250" cy="139" r="1" fill="#A5A9C0" stroke="#A5A9C0" stroke-width=".4"/><circle cx="260" cy="139" r="1" fill="#A5A9C0" stroke="#A5A9C0" stroke-width=".4"/><circle cx="270" cy="139" r="1" fill="#A5A9C0" stroke="#A5A9C0" stroke-width=".4"/><circle cx="280" cy="139" r="1" fill="#A5A9C0" stroke="#A5A9C0" stroke-width=".4"/><circle cx="290" cy="139" r="1" fill="#A5A9C0" stroke="#A5A9C0" stroke-width=".4"/><circle cx="300" cy="139" r="1" fill="#A5A9C0" stroke="#A5A9C0" stroke-width=".4"/><circle cx="310" cy="139" r="1" fill="#A5A9C0" stroke="#A5A9C0" stroke-width=".4"/><circle cx="320" cy="139" r="1" fill="#A5A9C0" stroke="#A5A9C0" stroke-width=".4"/><circle cx="330" cy="139" r="1" fill="#A5A9C0" stroke="#A5A9C0" stroke-width=".4"/><circle cx="340" cy="139" r="1" fill="#A5A9C0" stroke="#A5A9C0" stroke-width=".4"/><circle cx="200" cy="149" r="1" fill="#A5A9C0" stroke="#A5A9C0" stroke-width=".4"/><circle cx="210" cy="149" r="1" fill="#A5A9C0" stroke="#A5A9C0" stroke-width=".4"/><circle cx="220" cy="149" r="1" fill="#A5A9C0" stroke="#A5A9C0" stroke-width=".4"/><circle cx="230" cy="149" r="1" fill="#A5A9C0" stroke="#A5A9C0" stroke-width=".4"/><circle cx="240" cy="149" r="1" fill="#A5A9C0" stroke="#A5A9C0" stroke-width=".4"/><circle cx="250" cy="149" r="1" fill="#A5A9C0" stroke="#A5A9C0" stroke-width=".4"/><circle cx="260" cy="149" r="1" fill="#A5A9C0" stroke="#A5A9C0" stroke-width=".4"/><circle cx="270" cy="149" r="1" fill="#A5A9C0" stroke="#A5A9C0" stroke-width=".4"/><circle cx="280" cy="149" r="1" fill="#A5A9C0" stroke="#A5A9C0" stroke-width=".4"/><circle cx="290" cy="149" r="1" fill="#A5A9C0" stroke="#A5A9C0" stroke-width=".4"/><circle cx="300" cy="149" r="1" fill="#A5A9C0" stroke="#A5A9C0" stroke-width=".4"/><circle cx="310" cy="149" r="1" fill="#A5A9C0" stroke="#A5A9C0" stroke-width=".4"/><circle cx="320" cy="149" r="1" fill="#A5A9C0" stroke="#A5A9C0" stroke-width=".4"/><circle cx="330" cy="149" r="1" fill="#A5A9C0" stroke="#A5A9C0" stroke-width=".4"/><circle cx="340" cy="149" r="1" fill="#A5A9C0" stroke="#A5A9C0" stroke-width=".4"/><circle cx="200" cy="159" r="1" fill="#A5A9C0" stroke="#A5A9C0" stroke-width=".4"/><circle cx="210" cy="159" r="1" fill="#A5A9C0" stroke="#A5A9C0" stroke-width=".4"/><circle cx="220" cy="159" r="1" fill="#A5A9C0" stroke="#A5A9C0" stroke-width=".4"/><circle cx="230" cy="159" r="1" fill="#A5A9C0" stroke="#A5A9C0" stroke-width=".4"/><circle cx="240" cy="159" r="1" fill="#A5A9C0" stroke="#A5A9C0" stroke-width=".4"/><circle cx="250" cy="159" r="1" fill="#A5A9C0" stroke="#A5A9C0" stroke-width=".4"/><circle cx="260" cy="159" r="1" fill="#A5A9C0" stroke="#A5A9C0" stroke-width=".4"/><circle cx="270" cy="159" r="1" fill="#A5A9C0" stroke="#A5A9C0" stroke-width=".4"/><circle cx="280" cy="159" r="1" fill="#A5A9C0" stroke="#A5A9C0" stroke-width=".4"/><circle cx="290" cy="159" r="1" fill="#A5A9C0" stroke="#A5A9C0" stroke-width=".4"/><circle cx="300" cy="159" r="1" fill="#A5A9C0" stroke="#A5A9C0" stroke-width=".4"/><circle cx="310" cy="159" r="1" fill="#A5A9C0" stroke="#A5A9C0" stroke-width=".4"/><circle cx="320" cy="159" r="1" fill="#A5A9C0" stroke="#A5A9C0" stroke-width=".4"/><circle cx="330" cy="159" r="1" fill="#A5A9C0" stroke="#A5A9C0" stroke-width=".4"/><circle cx="340" cy="159" r="1" fill="#A5A9C0" stroke="#A5A9C0" stroke-width=".4"/><circle cx="200" cy="169" r="1" fill="#A5A9C0" stroke="#A5A9C0" stroke-width=".4"/><circle cx="210" cy="169" r="1" fill="#A5A9C0" stroke="#A5A9C0" stroke-width=".4"/><circle cx="220" cy="169" r="1" fill="#A5A9C0" stroke="#A5A9C0" stroke-width=".4"/><circle cx="230" cy="169" r="1" fill="#A5A9C0" stroke="#A5A9C0" stroke-width=".4"/><circle cx="240" cy="169" r="1" fill="#A5A9C0" stroke="#A5A9C0" stroke-width=".4"/><circle cx="250" cy="169" r="1" fill="#A5A9C0" stroke="#A5A9C0" stroke-width=".4"/><circle cx="260" cy="169" r="1" fill="#A5A9C0" stroke="#A5A9C0" stroke-width=".4"/><circle cx="270" cy="169" r="1" fill="#A5A9C0" stroke="#A5A9C0" stroke-width=".4"/><circle cx="280" cy="169" r="1" fill="#A5A9C0" stroke="#A5A9C0" stroke-width=".4"/><circle cx="290" cy="169" r="1" fill="#A5A9C0" stroke="#A5A9C0" stroke-width=".4"/><circle cx="300" cy="169" r="1" fill="#A5A9C0" stroke="#A5A9C0" stroke-width=".4"/><circle cx="310" cy="169" r="1" fill="#A5A9C0" stroke="#A5A9C0" stroke-width=".4"/><circle cx="320" cy="169" r="1" fill="#A5A9C0" stroke="#A5A9C0" stroke-width=".4"/><circle cx="330" cy="169" r="1" fill="#A5A9C0" stroke="#A5A9C0" stroke-width=".4"/><circle cx="340" cy="169" r="1" fill="#A5A9C0" stroke="#A5A9C0" stroke-width=".4"/><circle cx="200" cy="179" r="1" fill="#A5A9C0" stroke="#A5A9C0" stroke-width=".4"/><circle cx="210" cy="179" r="1" fill="#A5A9C0" stroke="#A5A9C0" stroke-width=".4"/><circle cx="220" cy="179" r="1" fill="#A5A9C0" stroke="#A5A9C0" stroke-width=".4"/><circle cx="230" cy="179" r="1" fill="#A5A9C0" stroke="#A5A9C0" stroke-width=".4"/><circle cx="240" cy="179" r="1" fill="#A5A9C0" stroke="#A5A9C0" stroke-width=".4"/><circle cx="250" cy="179" r="1" fill="#A5A9C0" stroke="#A5A9C0" stroke-width=".4"/><circle cx="260" cy="179" r="1" fill="#A5A9C0" stroke="#A5A9C0" stroke-width=".4"/><circle cx="270" cy="179" r="1" fill="#A5A9C0" stroke="#A5A9C0" stroke-width=".4"/><circle cx="280" cy="179" r="1" fill="#A5A9C0" stroke="#A5A9C0" stroke-width=".4"/><circle cx="290" cy="179" r="1" fill="#A5A9C0" stroke="#A5A9C0" stroke-width=".4"/><circle cx="300" cy="179" r="1" fill="#A5A9C0" stroke="#A5A9C0" stroke-width=".4"/><circle cx="310" cy="179" r="1" fill="#A5A9C0" stroke="#A5A9C0" stroke-width=".4"/><circle cx="320" cy="179" r="1" fill="#A5A9C0" stroke="#A5A9C0" stroke-width=".4"/><circle cx="330" cy="179" r="1" fill="#A5A9C0" stroke="#A5A9C0" stroke-width=".4"/><circle cx="340" cy="179" r="1" fill="#A5A9C0" stroke="#A5A9C0" stroke-width=".4"/><circle cx="200" cy="189" r="1" fill="#A5A9C0" stroke="#A5A9C0" stroke-width=".4"/><circle cx="210" cy="189" r="1" fill="#A5A9C0" stroke="#A5A9C0" stroke-width=".4"/><circle cx="220" cy="189" r="1" fill="#A5A9C0" stroke="#A5A9C0" stroke-width=".4"/><circle cx="230" cy="189" r="1" fill="#A5A9C0" stroke="#A5A9C0" stroke-width=".4"/><circle cx="240" cy="189" r="1" fill="#A5A9C0" stroke="#A5A9C0" stroke-width=".4"/><circle cx="250" cy="189" r="1" fill="#A5A9C0" stroke="#A5A9C0" stroke-width=".4"/><circle cx="260" cy="189" r="1" fill="#A5A9C0" stroke="#A5A9C0" stroke-width=".4"/><circle cx="270" cy="189" r="1" fill="#A5A9C0" stroke="#A5A9C0" stroke-width=".4"/><circle cx="280" cy="189" r="1" fill="#A5A9C0" stroke="#A5A9C0" stroke-width=".4"/><circle cx="290" cy="189" r="1" fill="#A5A9C0" stroke="#A5A9C0" stroke-width=".4"/><circle cx="300" cy="189" r="1" fill="#A5A9C0" stroke="#A5A9C0" stroke-width=".4"/><circle cx="310" cy="189" r="1" fill="#A5A9C0" stroke="#A5A9C0" stroke-width=".4"/><circle cx="320" cy="189" r="1" fill="#A5A9C0" stroke="#A5A9C0" stroke-width=".4"/><circle cx="330" cy="189" r="1" fill="#A5A9C0" stroke="#A5A9C0" stroke-width=".4"/><circle cx="340" cy="189" r="1" fill="#A5A9C0" stroke="#A5A9C0" stroke-width=".4"/><circle cx="200" cy="199" r="1" fill="#A5A9C0" stroke="#A5A9C0" stroke-width=".4"/><circle cx="210" cy="199" r="1" fill="#A5A9C0" stroke="#A5A9C0" stroke-width=".4"/><circle cx="220" cy="199" r="1" fill="#A5A9C0" stroke="#A5A9C0" stroke-width=".4"/><circle cx="230" cy="199" r="1" fill="#A5A9C0" stroke="#A5A9C0" stroke-width=".4"/><circle cx="240" cy="199" r="1" fill="#A5A9C0" stroke="#A5A9C0" stroke-width=".4"/><circle cx="250" cy="199" r="1" fill="#A5A9C0" stroke="#A5A9C0" stroke-width=".4"/><circle cx="260" cy="199" r="1" fill="#A5A9C0" stroke="#A5A9C0" stroke-width=".4"/><circle cx="270" cy="199" r="1" fill="#A5A9C0" stroke="#A5A9C0" stroke-width=".4"/><circle cx="280" cy="199" r="1" fill="#A5A9C0" stroke="#A5A9C0" stroke-width=".4"/><circle cx="290" cy="199" r="1" fill="#A5A9C0" stroke="#A5A9C0" stroke-width=".4"/><circle cx="300" cy="199" r="1" fill="#A5A9C0" stroke="#A5A9C0" stroke-width=".4"/><circle cx="310" cy="199" r="1" fill="#A5A9C0" stroke="#A5A9C0" stroke-width=".4"/><circle cx="320" cy="199" r="1" fill="#A5A9C0" stroke="#A5A9C0" stroke-width=".4"/><circle cx="330" cy="199" r="1" fill="#A5A9C0" stroke="#A5A9C0" stroke-width=".4"/><circle cx="340" cy="199" r="1" fill="#A5A9C0" stroke="#A5A9C0" stroke-width=".4"/><circle cx="200" cy="209" r="1" fill="#A5A9C0" stroke="#A5A9C0" stroke-width=".4"/><circle cx="210" cy="209" r="1" fill="#A5A9C0" stroke="#A5A9C0" stroke-width=".4"/><circle cx="220" cy="209" r="1" fill="#A5A9C0" stroke="#A5A9C0" stroke-width=".4"/><circle cx="230" cy="209" r="1" fill="#A5A9C0" stroke="#A5A9C0" stroke-width=".4"/><circle cx="240" cy="209" r="1" fill="#A5A9C0" stroke="#A5A9C0" stroke-width=".4"/><circle cx="250" cy="209" r="1" fill="#A5A9C0" stroke="#A5A9C0" stroke-width=".4"/><circle cx="260" cy="209" r="1" fill="#A5A9C0" stroke="#A5A9C0" stroke-width=".4"/><circle cx="270" cy="209" r="1" fill="#A5A9C0" stroke="#A5A9C0" stroke-width=".4"/><circle cx="280" cy="209" r="1" fill="#A5A9C0" stroke="#A5A9C0" stroke-width=".4"/><circle cx="290" cy="209" r="1" fill="#A5A9C0" stroke="#A5A9C0" stroke-width=".4"/><circle cx="300" cy="209" r="1" fill="#A5A9C0" stroke="#A5A9C0" stroke-width=".4"/><circle cx="310" cy="209" r="1" fill="#A5A9C0" stroke="#A5A9C0" stroke-width=".4"/><circle cx="320" cy="209" r="1" fill="#A5A9C0" stroke="#A5A9C0" stroke-width=".4"/><circle cx="330" cy="209" r="1" fill="#A5A9C0" stroke="#A5A9C0" stroke-width=".4"/><circle cx="340" cy="209" r="1" fill="#A5A9C0" stroke="#A5A9C0" stroke-width=".4"/></svg>